<svg xmlns="http://www.w3.org/2000/svg" xmlns:xlink="http://www.w3.org/1999/xlink" width="194" height="194" viewBox="0 0 194 194">
    <defs>
        <circle id="a" cx="95" cy="95" r="95"/>
    </defs>
    <g fill="none" fill-rule="evenodd" transform="translate(2 2)">
        <mask id="b" fill="#fff">
            <use xlink:href="#a"/>
        </mask>
        <use fill="#F76707" stroke="#E9EBED" stroke-linecap="round" stroke-width="2.572" xlink:href="#a"/>
        <g mask="url(#b)">
            <path fill="#FFF" d="M54.654 190.201s.167-17.167 17.5-32.667l49 .334s14.5 17.5 15.667 32.666l-82.167-.333z"/>
            <path stroke="#E3E4E5" stroke-linecap="round" stroke-width="1.6" d="M97.25 148.914H98.727c23.8-.005 34.373 22.847 38.694 41.47M94.287 148.914h-1.476c-22.763-.005-33.782 22.797-38.449 40.912M126.487 190.076c-1.79-8.584-4.059-14.094-5.427-15.817M65.287 190.23c1.767-8.278 3.854-14.287 5.19-15.971"/>
            <path fill="#FFF" d="M91.497 87.452s-2.402-18.976-6.842-35.514c-5.55-20.672-15.489-35.473-28.896-29.988-17.03 6.968-9.435 27.776-3.457 40.73 6.271 13.588 9.988 22.805 14.587 36.26"/>
            <path stroke="#E3E4E5" stroke-width="1.6" d="M91.497 87.452s-2.402-18.976-6.842-35.514c-5.55-20.672-15.489-35.473-28.896-29.988-17.03 6.968-9.435 27.776-3.457 40.73 6.271 13.588 9.988 22.805 14.587 36.26"/>
            <path fill="#F0CBB4" d="M83.673 84.93S81.06 69.2 77.577 57.563c-4.514-15.09-10.43-25.963-17.246-22.867-9.97 4.528-2.365 17.065 1.779 29.344 3.148 9.329 6.67 17.94 9.439 26.378"/>
            <path stroke="#EAC5B2" stroke-width="1.6" d="M83.673 84.93S81.06 69.2 77.577 57.563c-4.514-15.09-10.43-25.963-17.246-22.867-9.97 4.528-2.365 17.065 1.779 29.344 3.148 9.329 6.67 17.94 9.439 26.378"/>
            <path fill="#FFF" d="M95.793 84.637s4.154-18.67 10.11-34.724c7.448-20.067 18.72-33.881 31.559-27.173 16.309 8.519 6.813 28.532-.342 40.873-7.507 12.948-12.064 21.78-17.892 34.748"/>
            <path stroke="#E3E4E5" stroke-width="1.6" d="M95.793 84.637s4.154-18.67 10.11-34.724c7.448-20.067 18.72-33.881 31.559-27.173 16.309 8.519 6.813 28.532-.342 40.873-7.507 12.948-12.064 21.78-17.892 34.748"/>
            <path fill="#F0CBB4" d="M103.817 82.854s4.063-15.422 8.611-26.685c5.898-14.604 12.798-24.881 19.296-21.166 9.506 5.435.771 17.21-4.496 29.053-4 8.996-8.309 17.24-11.849 25.387"/>
            <path stroke="#EAC5B2" stroke-width="1.6" d="M103.817 82.854s4.063-15.422 8.611-26.685c5.898-14.604 12.798-24.881 19.296-21.166 9.506 5.435.771 17.21-4.496 29.053-4 8.996-8.309 17.24-11.849 25.387"/>
            <path fill="#FFF" d="M150.951 114.404c-.892 30.382-24.23 46.357-54.625 46.424-30.395.066-54.013-15.824-55.444-46.185-1.744-36.996 24.506-61.842 54.9-61.907 30.395-.066 56.255 24.666 55.17 61.668"/>
            <path stroke="#E3E4E5" stroke-width="1.6" d="M150.951 114.404c-.892 30.382-24.23 46.357-54.625 46.424-30.395.066-54.013-15.824-55.444-46.185-1.744-36.996 24.506-61.842 54.9-61.907 30.395-.066 56.255 24.666 55.17 61.668z"/>
            <path fill="#FBEEE5" d="M138.197 118.755c.051 23.364-18.86 36.651-42.226 36.702-23.364.051-42.334-13.154-42.384-36.518-.06-27.702 18.837-48.04 42.201-48.09 23.364-.052 42.35 20.532 42.41 47.906"/>
            <path stroke="#F9E3D8" stroke-width="1.6" d="M138.197 118.755c.051 23.364-18.86 36.651-42.226 36.702-23.364.051-42.334-13.154-42.384-36.518-.06-27.702 18.837-48.04 42.201-48.09 23.364-.052 42.35 20.532 42.41 47.906z"/>
            <path fill="#3DA84C" d="M81.57 84.692c5.037 3.67 8.416-5.806 8.416-5.806s.603 8.749 6.602 8.07c5.652-.641 4.69-8.514 4.69-8.514s4.336 8.159 8.868 5.706c5.57-3.016 1.483-10.035 1.483-10.035s-16.172-8.108-31.666.159c0 0-3.7 6.553 1.607 10.42"/>
            <path stroke="#329C3F" stroke-linecap="round" stroke-linejoin="round" stroke-width="1.6" d="M81.57 84.692c5.037 3.67 8.416-5.806 8.416-5.806s.603 8.749 6.602 8.07c5.652-.641 4.69-8.514 4.69-8.514s4.336 8.159 8.868 5.706c5.57-3.016 1.483-10.035 1.483-10.035s-16.172-8.108-31.666.159c0 0-3.7 6.553 1.607 10.42z"/>
            <path fill="#F2CAB6" d="M119.892 123.53c.005 2.209-3.125 4.007-6.991 4.015-3.865.008-7.004-1.776-7.01-3.985-.004-2.21 3.127-4.007 6.992-4.015 3.866-.008 7.004 1.776 7.009 3.985M85.892 123.604c.005 2.209-3.125 4.007-6.991 4.015-3.865.008-7.004-1.776-7.01-3.985-.003-2.21 3.127-4.007 6.993-4.015 3.865-.008 7.004 1.775 7.008 3.985"/>
            <path fill="#000" d="M109.339 121.407a4.5 4.5 0 1 1-.02-9 4.5 4.5 0 0 1 .02 9M82.465 121.414a4.5 4.5 0 1 1-.02-9 4.5 4.5 0 0 1 .02 9"/>
            <path fill="#A8704D" d="M96.103 125.261c2.33-.132 3.378-2.054 3.303-3.084-.095-1.278-1.499-2.03-3.668-1.907-2.169.122-3.452 1.026-3.358 2.303.076 1.032 1.394 2.82 3.724 2.688"/>
            <path stroke="#A8704D" stroke-linecap="round" stroke-linejoin="round" stroke-width="2" d="M86.676 127.583s3.166 1.825 5.71 1.167c2.428-.628 3.312-2.832 3.312-2.832-.031-2.206-.027-1.528-.027-1.528M105.108 127.587s-3.158 1.891-5.706 1.285c-2.43-.577-3.323-2.763-3.323-2.763.021-2.206.02-1.529.02-1.529"/>
        </g>
    </g>
</svg>
